<?xml version="1.0" encoding="UTF-8" standalone="no"?>
<svg xmlns="http://www.w3.org/2000/svg" width="2048" height="616" viewBox="0 0 2048 616">
    <path d="M 482 454 L 483 456 L 492 456 L 493 455 L 492 453 L 483 453 Z" fill="#FFFFFF" />
    <path d="M 506 445 L 506 447 L 507 448 L 508 448 L 510 446 L 511 446 L 513 448 L 513 450 L 510 453 L 510 454 L 506 457 L 506 460 L 507 461 L 516 461 L 517 460 L 517 458 L 514 456 L 517 450 L 519 451 L 519 457 L 520 459 L 523 461 L 528 461 L 532 456 L 532 446 L 533 445 L 535 447 L 537 446 L 539 447 L 539 448 L 537 449 L 536 451 L 541 455 L 538 458 L 535 457 L 533 460 L 534 461 L 541 461 L 544 459 L 544 457 L 545 456 L 546 456 L 550 461 L 555 461 L 558 459 L 560 455 L 560 448 L 556 443 L 550 443 L 547 446 L 546 448 L 546 451 L 545 452 L 543 451 L 544 445 L 540 442 L 537 442 L 532 446 L 529 443 L 523 443 L 521 444 L 519 447 L 518 447 L 515 443 L 513 443 L 512 442 L 510 442 Z" fill="#FFFFFF" />
    <path d="M 416 445 L 417 447 L 420 447 L 421 446 L 423 447 L 423 451 L 416 458 L 416 460 L 417 461 L 427 461 L 428 460 L 428 458 L 425 456 L 425 454 L 427 451 L 429 452 L 429 454 L 430 455 L 431 459 L 434 461 L 438 461 L 443 457 L 445 461 L 455 461 L 456 460 L 456 457 L 457 456 L 462 456 L 464 458 L 464 460 L 465 461 L 467 461 L 470 456 L 470 454 L 468 452 L 468 443 L 464 443 L 456 453 L 455 452 L 456 446 L 451 442 L 446 443 L 443 446 L 439 443 L 433 443 L 431 445 L 431 446 L 429 447 L 425 443 L 423 442 L 418 443 Z" fill="#FFFFFF" />
    <path d="M 669 423 L 670 424 L 673 424 L 677 419 L 681 419 L 685 424 L 688 424 L 689 423 L 691 424 L 702 424 L 704 423 L 709 417 L 710 417 L 712 421 L 714 423 L 716 424 L 724 424 L 728 420 L 729 418 L 729 416 L 730 415 L 730 411 L 728 407 L 724 404 L 717 404 L 716 405 L 714 405 L 712 407 L 710 411 L 709 411 L 708 409 L 704 405 L 700 405 L 699 404 L 691 404 L 690 405 L 690 419 L 688 420 L 684 413 L 684 410 L 682 406 L 680 404 L 678 404 L 673 413 L 673 416 Z" fill="#FFFFFF" />
    <path d="M 628 423 L 629 424 L 639 424 L 641 422 L 642 422 L 644 424 L 651 424 L 656 419 L 656 417 L 653 413 L 650 412 L 647 409 L 649 407 L 653 409 L 656 407 L 657 408 L 659 408 L 661 410 L 661 423 L 662 424 L 665 424 L 666 423 L 666 410 L 668 408 L 671 408 L 672 407 L 672 405 L 671 404 L 657 404 L 656 405 L 654 405 L 653 404 L 646 404 L 642 407 L 642 412 L 644 414 L 649 416 L 651 418 L 649 420 L 647 420 L 646 419 L 642 419 L 640 421 L 639 420 L 634 420 L 632 418 L 634 416 L 637 416 L 639 414 L 638 412 L 634 412 L 632 410 L 634 408 L 638 408 L 640 406 L 640 405 L 639 404 L 629 404 L 628 405 Z" fill="#FFFFFF" />
    <path d="M 589 405 L 589 408 L 590 409 L 590 423 L 591 424 L 600 424 L 602 422 L 603 422 L 605 424 L 615 424 L 617 422 L 616 420 L 611 420 L 609 418 L 609 405 L 608 404 L 605 404 L 604 405 L 604 419 L 602 421 L 601 420 L 596 420 L 594 418 L 596 416 L 599 416 L 601 414 L 600 412 L 596 412 L 594 410 L 596 408 L 600 408 L 601 407 L 601 405 L 600 404 L 590 404 Z" fill="#FFFFFF" />
    <path d="M 570 404 L 569 405 L 569 423 L 570 424 L 580 424 L 582 423 L 587 418 L 587 409 L 583 405 L 579 405 L 578 404 Z" fill="#FFFFFF" />
    <path d="M 498 405 L 498 423 L 499 424 L 502 424 L 503 423 L 503 418 L 504 417 L 506 418 L 506 419 L 510 424 L 512 424 L 514 422 L 517 424 L 520 424 L 521 423 L 521 415 L 522 414 L 523 414 L 528 419 L 528 420 L 531 424 L 534 424 L 535 423 L 535 416 L 536 415 L 538 416 L 539 420 L 544 424 L 551 424 L 553 423 L 557 419 L 557 409 L 556 407 L 552 404 L 545 404 L 544 405 L 542 405 L 539 408 L 538 412 L 537 413 L 535 412 L 535 405 L 534 404 L 532 404 L 531 405 L 531 413 L 530 414 L 529 414 L 526 411 L 524 407 L 521 404 L 517 404 L 516 405 L 516 421 L 515 422 L 513 421 L 511 417 L 511 415 L 513 412 L 513 407 L 511 405 L 509 405 L 508 404 L 499 404 Z" fill="#FFFFFF" />
    <path d="M 485 404 L 484 405 L 484 423 L 485 424 L 494 424 L 495 423 L 495 421 L 494 420 L 490 420 L 488 418 L 490 416 L 494 416 L 495 415 L 495 413 L 494 412 L 490 412 L 488 410 L 490 408 L 494 408 L 495 407 L 495 405 L 494 404 Z" fill="#FFFFFF" />
    <path d="M 415 411 L 415 418 L 416 420 L 419 423 L 421 424 L 424 424 L 425 425 L 433 423 L 435 419 L 436 419 L 440 423 L 446 425 L 447 424 L 451 423 L 455 419 L 455 416 L 456 415 L 458 416 L 458 423 L 459 424 L 469 424 L 473 421 L 474 421 L 476 424 L 479 424 L 480 423 L 480 405 L 479 404 L 476 404 L 475 405 L 475 414 L 474 415 L 473 415 L 471 413 L 472 407 L 468 404 L 459 404 L 458 405 L 458 410 L 457 411 L 455 410 L 454 407 L 452 405 L 450 405 L 449 404 L 442 404 L 437 408 L 436 412 L 435 413 L 430 413 L 429 414 L 429 418 L 427 420 L 424 420 L 420 416 L 420 410 L 424 407 L 428 408 L 431 410 L 433 408 L 433 406 L 430 404 L 422 404 L 421 405 L 419 405 L 417 407 Z" fill="#FFFFFF" />
    <path d="M 414 384 L 415 386 L 995 386 L 996 385 L 995 383 L 415 383 Z" fill="#FFFFFF" />
    <path d="M 348 339 L 345 339 L 341 344 L 341 348 L 340 349 L 340 353 L 339 354 L 339 360 L 338 361 L 338 364 L 336 367 L 336 370 L 335 371 L 334 376 L 332 379 L 332 381 L 330 384 L 330 386 L 328 390 L 326 392 L 326 394 L 324 396 L 320 404 L 317 407 L 317 408 L 312 414 L 312 415 L 306 421 L 306 422 L 289 438 L 285 440 L 281 444 L 278 445 L 273 449 L 268 451 L 266 453 L 264 453 L 257 457 L 252 458 L 244 462 L 240 462 L 239 463 L 233 464 L 232 465 L 229 465 L 228 466 L 220 466 L 217 468 L 217 473 L 218 474 L 223 474 L 224 473 L 231 473 L 232 472 L 239 471 L 243 469 L 247 469 L 255 465 L 260 464 L 267 460 L 269 460 L 273 457 L 278 455 L 289 447 L 290 447 L 300 438 L 301 438 L 311 428 L 311 427 L 319 419 L 321 415 L 324 412 L 325 409 L 328 406 L 328 404 L 331 401 L 333 397 L 333 395 L 335 393 L 337 389 L 337 387 L 341 379 L 342 373 L 344 370 L 345 364 L 346 363 L 346 358 L 347 357 L 348 347 L 349 346 L 349 340 Z" fill="#FFFFFF" />
    <path d="M 332 339 L 328 339 L 326 341 L 325 343 L 325 348 L 324 349 L 324 352 L 323 353 L 323 357 L 321 361 L 321 365 L 318 371 L 317 376 L 311 388 L 309 390 L 308 393 L 306 395 L 304 399 L 300 403 L 300 404 L 295 409 L 295 410 L 292 413 L 291 413 L 282 422 L 278 424 L 275 427 L 274 427 L 269 431 L 259 436 L 257 436 L 255 438 L 253 438 L 250 440 L 247 440 L 244 442 L 242 442 L 238 444 L 235 444 L 225 449 L 224 450 L 224 459 L 225 460 L 229 455 L 237 451 L 240 451 L 241 450 L 246 449 L 249 447 L 255 446 L 275 436 L 277 434 L 281 432 L 284 429 L 285 429 L 289 425 L 290 425 L 305 410 L 305 409 L 309 405 L 309 404 L 315 396 L 324 378 L 325 373 L 328 367 L 329 359 L 331 355 L 331 351 L 332 350 L 332 344 L 333 343 L 333 340 Z" fill="#FFFFFF" />
    <path d="M 317 339 L 313 339 L 310 343 L 307 359 L 305 362 L 304 367 L 299 376 L 299 378 L 295 383 L 295 385 L 292 388 L 292 389 L 289 392 L 289 393 L 286 396 L 286 397 L 278 405 L 278 407 L 282 411 L 283 411 L 296 397 L 296 396 L 302 388 L 303 385 L 305 383 L 306 379 L 310 373 L 312 365 L 314 362 L 315 354 L 316 353 L 316 350 L 317 349 L 317 345 L 318 344 L 318 340 Z" fill="#FFFFFF" />
    <path d="M 302 339 L 299 339 L 296 341 L 295 343 L 294 351 L 293 352 L 293 354 L 290 360 L 290 363 L 287 367 L 285 373 L 282 376 L 281 379 L 276 385 L 276 386 L 268 394 L 268 395 L 272 399 L 274 399 L 280 393 L 280 392 L 284 388 L 284 387 L 287 384 L 290 378 L 292 376 L 293 372 L 295 370 L 297 366 L 298 360 L 301 354 L 301 351 L 302 350 L 302 343 L 303 342 L 303 340 Z" fill="#FFFFFF" />
    <path d="M 288 339 L 284 339 L 280 343 L 280 346 L 279 347 L 279 349 L 277 353 L 277 356 L 275 360 L 273 362 L 272 366 L 270 368 L 268 372 L 265 375 L 265 376 L 253 388 L 250 388 L 247 386 L 247 383 L 249 380 L 249 377 L 254 370 L 254 363 L 252 361 L 251 361 L 244 371 L 242 375 L 242 377 L 238 384 L 238 388 L 236 392 L 235 400 L 234 401 L 234 423 L 236 426 L 240 426 L 242 424 L 242 420 L 241 419 L 241 405 L 242 404 L 242 399 L 243 398 L 243 396 L 245 394 L 246 394 L 249 397 L 253 399 L 269 416 L 271 417 L 275 417 L 276 416 L 276 414 L 274 410 L 271 407 L 271 406 L 259 394 L 259 393 L 271 381 L 271 380 L 275 376 L 276 373 L 278 371 L 280 367 L 280 365 L 283 361 L 283 359 L 284 358 L 284 356 L 285 355 L 285 353 L 287 349 L 287 346 L 288 345 Z" fill="#FFFFFF" />
    <path d="M 117 339 L 116 340 L 116 344 L 117 345 L 117 348 L 119 352 L 120 358 L 123 363 L 124 367 L 126 369 L 128 374 L 131 377 L 131 378 L 134 381 L 134 382 L 145 393 L 145 395 L 143 396 L 137 402 L 137 403 L 129 412 L 128 415 L 130 417 L 136 416 L 141 410 L 141 409 L 149 401 L 150 401 L 154 397 L 155 397 L 158 394 L 159 394 L 162 398 L 162 402 L 163 403 L 163 422 L 162 424 L 164 426 L 169 426 L 170 425 L 170 399 L 169 398 L 169 394 L 168 393 L 168 391 L 166 387 L 166 384 L 161 374 L 161 372 L 157 367 L 156 364 L 153 361 L 151 361 L 150 362 L 150 370 L 153 374 L 158 384 L 158 385 L 154 388 L 150 387 L 139 376 L 139 375 L 136 372 L 135 369 L 131 364 L 130 360 L 126 353 L 126 349 L 125 348 L 125 345 L 124 343 L 120 339 Z" fill="#FFFFFF" />
    <path d="M 102 339 L 101 340 L 101 344 L 102 345 L 103 353 L 106 359 L 106 363 L 110 370 L 111 374 L 115 379 L 115 381 L 117 383 L 117 384 L 124 392 L 124 393 L 130 399 L 134 398 L 136 394 L 126 383 L 126 382 L 120 374 L 119 371 L 117 369 L 117 367 L 113 360 L 113 357 L 112 356 L 112 354 L 110 350 L 110 347 L 109 346 L 109 343 L 108 341 L 106 339 Z" fill="#FFFFFF" />
    <path d="M 87 339 L 86 341 L 87 342 L 87 347 L 88 348 L 88 354 L 89 355 L 90 361 L 93 367 L 93 370 L 97 377 L 97 379 L 99 381 L 102 388 L 105 391 L 106 394 L 115 404 L 115 405 L 121 411 L 122 411 L 126 407 L 126 405 L 116 394 L 116 393 L 110 386 L 108 381 L 104 376 L 104 374 L 100 367 L 100 364 L 99 363 L 98 358 L 96 355 L 96 352 L 95 351 L 95 345 L 94 344 L 94 342 L 91 339 Z" fill="#FFFFFF" />
    <path d="M 72 339 L 71 340 L 71 342 L 72 343 L 72 348 L 73 349 L 73 353 L 74 354 L 74 357 L 75 358 L 75 363 L 76 364 L 76 366 L 77 367 L 77 369 L 78 370 L 80 378 L 84 385 L 85 389 L 88 392 L 88 394 L 92 399 L 93 402 L 100 410 L 100 411 L 114 425 L 115 425 L 119 429 L 123 431 L 126 434 L 136 439 L 138 441 L 142 442 L 149 446 L 155 447 L 158 449 L 160 449 L 164 451 L 167 451 L 175 455 L 179 459 L 179 461 L 180 461 L 180 450 L 178 448 L 172 445 L 166 444 L 165 443 L 163 443 L 157 440 L 154 440 L 147 436 L 145 436 L 139 433 L 137 431 L 135 431 L 132 428 L 129 427 L 121 420 L 120 420 L 104 404 L 104 403 L 100 399 L 99 396 L 96 393 L 87 375 L 86 370 L 84 367 L 84 365 L 82 361 L 82 356 L 81 355 L 81 352 L 80 351 L 79 343 L 76 339 Z" fill="#FFFFFF" />
    <path d="M 57 339 L 56 340 L 56 346 L 57 347 L 57 354 L 58 355 L 58 360 L 60 364 L 60 367 L 62 371 L 63 377 L 66 382 L 66 385 L 71 394 L 71 396 L 75 401 L 75 403 L 79 408 L 80 411 L 84 415 L 86 419 L 89 422 L 89 423 L 107 441 L 108 441 L 112 445 L 116 447 L 119 450 L 122 451 L 124 453 L 132 457 L 134 459 L 138 460 L 142 463 L 144 463 L 147 465 L 152 466 L 158 469 L 162 469 L 163 470 L 165 470 L 169 472 L 173 472 L 174 473 L 189 474 L 190 473 L 190 468 L 189 467 L 185 467 L 184 466 L 177 466 L 176 465 L 169 464 L 165 462 L 161 462 L 155 459 L 153 459 L 150 457 L 148 457 L 141 453 L 137 452 L 135 450 L 132 449 L 130 447 L 124 444 L 121 441 L 117 439 L 97 420 L 97 419 L 92 414 L 90 410 L 82 400 L 82 398 L 80 396 L 73 382 L 73 380 L 70 374 L 69 368 L 67 364 L 66 357 L 65 356 L 64 344 L 61 340 Z" fill="#FFFFFF" />
    <path d="M 972 334 L 971 335 L 971 367 L 987 367 L 988 368 L 990 368 L 992 366 L 992 362 L 991 361 L 980 361 L 978 359 L 978 355 L 980 353 L 988 353 L 989 352 L 989 348 L 988 347 L 980 347 L 978 345 L 978 342 L 980 340 L 990 340 L 992 338 L 992 335 L 991 334 Z" fill="#FFFFFF" />
    <path d="M 933 334 L 932 335 L 932 366 L 933 367 L 939 367 L 940 366 L 939 347 L 941 346 L 950 356 L 950 357 L 955 363 L 958 368 L 963 368 L 965 366 L 965 335 L 964 334 L 959 334 L 958 335 L 958 352 L 956 353 L 948 344 L 946 340 L 941 334 Z" fill="#FFFFFF" />
    <path d="M 898 334 L 897 335 L 897 360 L 898 362 L 903 367 L 905 367 L 906 368 L 915 368 L 916 367 L 920 366 L 924 362 L 926 358 L 926 341 L 927 340 L 927 335 L 926 334 L 920 334 L 919 335 L 919 358 L 916 361 L 908 361 L 904 356 L 904 335 L 903 334 Z" fill="#FFFFFF" />
    <path d="M 861 334 L 859 335 L 854 340 L 854 342 L 853 343 L 854 347 L 857 350 L 867 355 L 870 358 L 870 359 L 868 361 L 861 361 L 860 360 L 856 359 L 854 361 L 854 366 L 855 367 L 858 367 L 859 368 L 868 368 L 872 366 L 877 359 L 877 354 L 876 352 L 871 348 L 869 348 L 865 346 L 861 342 L 861 341 L 863 339 L 864 339 L 865 340 L 868 340 L 869 341 L 872 341 L 873 342 L 875 339 L 875 335 L 874 334 Z" fill="#FFFFFF" />
    <path d="M 781 334 L 780 335 L 780 362 L 779 363 L 779 366 L 780 367 L 786 367 L 787 366 L 787 348 L 789 347 L 800 360 L 800 361 L 803 364 L 803 365 L 806 368 L 810 368 L 812 366 L 812 335 L 811 334 L 806 334 L 805 335 L 805 352 L 803 353 L 788 334 Z" fill="#FFFFFF" />
    <path d="M 740 334 L 739 335 L 739 367 L 755 367 L 756 368 L 758 368 L 759 367 L 759 362 L 758 361 L 748 361 L 746 359 L 746 355 L 748 353 L 756 353 L 758 350 L 758 348 L 757 347 L 748 347 L 746 345 L 746 342 L 748 340 L 758 340 L 759 339 L 759 335 L 758 334 Z" fill="#FFFFFF" />
    <path d="M 704 334 L 703 335 L 703 358 L 704 359 L 704 362 L 709 367 L 711 367 L 712 368 L 721 368 L 722 367 L 726 366 L 731 361 L 732 357 L 733 356 L 733 335 L 732 334 L 727 334 L 726 335 L 726 351 L 725 352 L 725 359 L 723 361 L 714 361 L 711 358 L 711 335 L 710 334 Z" fill="#FFFFFF" />
    <path d="M 588 335 L 588 367 L 589 368 L 590 367 L 594 367 L 595 366 L 595 357 L 597 355 L 598 355 L 601 358 L 605 365 L 608 368 L 612 367 L 614 365 L 617 367 L 623 367 L 624 363 L 627 359 L 636 359 L 639 362 L 639 364 L 641 368 L 647 367 L 648 366 L 645 360 L 645 357 L 641 350 L 639 342 L 635 334 L 630 334 L 628 336 L 628 338 L 625 343 L 624 348 L 620 355 L 620 357 L 617 363 L 615 365 L 610 359 L 608 355 L 608 353 L 610 351 L 612 347 L 612 345 L 613 344 L 612 342 L 612 339 L 608 335 L 606 335 L 605 334 L 589 334 Z" fill="#FFFFFF" />
    <path d="M 558 334 L 557 335 L 557 367 L 559 368 L 560 367 L 564 367 L 565 366 L 565 357 L 567 355 L 572 360 L 572 362 L 576 366 L 577 368 L 581 367 L 583 365 L 583 363 L 580 360 L 580 359 L 577 355 L 577 353 L 580 350 L 582 346 L 582 341 L 581 339 L 577 335 L 575 334 Z" fill="#FFFFFF" />
    <path d="M 533 334 L 532 335 L 532 367 L 548 367 L 549 368 L 551 368 L 552 367 L 552 362 L 551 361 L 541 361 L 539 359 L 539 355 L 541 353 L 549 353 L 550 352 L 550 348 L 549 347 L 541 347 L 539 345 L 539 342 L 541 340 L 551 340 L 552 339 L 552 335 L 551 334 Z" fill="#FFFFFF" />
    <path d="M 525 334 L 519 334 L 518 335 L 518 367 L 519 368 L 521 367 L 525 367 L 526 366 L 526 353 L 525 352 L 525 350 L 526 349 L 526 335 Z" fill="#FFFFFF" />
    <path d="M 489 334 L 488 335 L 488 339 L 489 340 L 495 340 L 497 342 L 497 366 L 498 367 L 503 367 L 504 366 L 504 342 L 506 340 L 513 340 L 514 339 L 514 335 L 513 334 Z" fill="#FFFFFF" />
    <path d="M 416 335 L 417 336 L 417 366 L 418 367 L 434 367 L 435 368 L 437 367 L 446 367 L 447 365 L 447 362 L 450 359 L 459 359 L 462 362 L 462 365 L 464 368 L 470 367 L 471 366 L 470 365 L 469 360 L 466 355 L 466 353 L 464 350 L 463 345 L 460 340 L 460 337 L 458 334 L 453 334 L 451 336 L 449 340 L 448 345 L 444 352 L 444 354 L 441 359 L 441 361 L 439 365 L 437 364 L 437 362 L 436 361 L 426 361 L 424 359 L 424 335 L 423 334 L 417 334 Z" fill="#FFFFFF" />
    <path d="M 827 334 L 823 336 L 819 340 L 818 342 L 818 344 L 817 345 L 817 349 L 816 350 L 816 352 L 817 353 L 817 357 L 818 358 L 818 360 L 824 366 L 828 368 L 838 368 L 842 366 L 847 361 L 849 357 L 849 355 L 850 354 L 850 345 L 847 339 L 840 334 L 837 334 L 836 333 L 831 333 L 830 334 Z" fill="#FFFFFF" />
    <path d="M 675 334 L 668 340 L 665 346 L 665 355 L 666 356 L 667 360 L 669 362 L 669 363 L 674 367 L 676 367 L 677 368 L 686 368 L 691 373 L 697 374 L 699 372 L 699 371 L 693 365 L 693 364 L 697 359 L 697 357 L 698 356 L 698 352 L 699 351 L 699 348 L 698 347 L 698 343 L 697 341 L 691 335 L 689 334 L 686 334 L 685 333 Z" fill="#FFFFFF" />
    <path d="M 212 323 L 210 326 L 210 331 L 213 334 L 213 335 L 210 337 L 210 343 L 212 345 L 215 345 L 217 343 L 217 337 L 213 334 L 217 331 L 217 325 L 215 323 Z" fill="#FFFFFF" />
    <path d="M 271 323 L 271 329 L 272 330 L 349 330 L 350 329 L 350 326 L 346 322 L 272 322 Z" fill="#FFFFFF" />
    <path d="M 55 326 L 55 329 L 56 330 L 135 330 L 136 329 L 136 323 L 135 322 L 59 322 Z" fill="#FFFFFF" />
    <path d="M 201 318 L 198 322 L 198 325 L 202 329 L 202 330 L 199 332 L 198 334 L 198 337 L 199 339 L 202 341 L 202 342 L 198 346 L 198 349 L 201 353 L 204 353 L 206 350 L 206 346 L 203 342 L 203 341 L 206 338 L 206 333 L 203 330 L 203 329 L 205 327 L 205 319 L 204 318 Z" fill="#FFFFFF" />
    <path d="M 1366 315 L 1365 316 L 1365 320 L 1366 321 L 1366 365 L 1367 366 L 1367 368 L 1366 369 L 1366 389 L 1365 390 L 1365 410 L 1364 411 L 1364 425 L 1365 426 L 1372 426 L 1373 427 L 1386 427 L 1387 428 L 1419 428 L 1420 427 L 1424 427 L 1428 425 L 1432 425 L 1433 424 L 1435 424 L 1449 416 L 1458 407 L 1458 406 L 1462 401 L 1462 399 L 1464 397 L 1466 393 L 1467 387 L 1468 386 L 1469 380 L 1470 379 L 1470 372 L 1471 371 L 1470 355 L 1469 354 L 1469 352 L 1467 348 L 1467 345 L 1465 341 L 1462 338 L 1462 336 L 1455 329 L 1454 329 L 1451 326 L 1448 325 L 1446 323 L 1442 321 L 1439 321 L 1433 318 L 1430 318 L 1429 317 L 1415 316 L 1414 315 Z" fill="#FFFFFF" />
    <path d="M 223 315 L 221 317 L 221 322 L 223 324 L 226 324 L 228 322 L 228 317 L 226 315 Z" fill="#FFFFFF" />
    <path d="M 179 315 L 177 317 L 176 321 L 178 324 L 182 324 L 184 321 L 184 317 L 182 315 Z" fill="#FFFFFF" />
    <path d="M 1918 316 L 1917 317 L 1917 337 L 1918 338 L 1918 425 L 1919 426 L 1928 426 L 1929 425 L 1961 425 L 1962 426 L 1986 426 L 1987 427 L 1988 426 L 1988 412 L 1989 411 L 1989 403 L 1988 402 L 1950 402 L 1948 400 L 1948 385 L 1947 384 L 1947 354 L 1948 353 L 1948 328 L 1949 327 L 1949 315 L 1948 314 L 1941 314 L 1940 315 L 1922 315 L 1921 316 Z" fill="#FFFFFF" />
    <path d="M 1836 314 L 1833 318 L 1833 321 L 1829 328 L 1829 330 L 1826 335 L 1826 337 L 1824 340 L 1824 342 L 1820 349 L 1820 352 L 1815 361 L 1815 363 L 1811 370 L 1811 373 L 1802 391 L 1802 393 L 1798 400 L 1798 403 L 1796 405 L 1794 409 L 1793 414 L 1788 424 L 1789 425 L 1795 425 L 1796 426 L 1818 426 L 1819 422 L 1820 421 L 1820 419 L 1821 418 L 1821 416 L 1822 415 L 1822 413 L 1823 412 L 1823 409 L 1825 405 L 1827 403 L 1866 403 L 1869 406 L 1869 408 L 1870 409 L 1870 411 L 1871 412 L 1871 414 L 1872 415 L 1873 421 L 1874 422 L 1875 426 L 1906 426 L 1907 425 L 1906 421 L 1897 403 L 1897 400 L 1893 393 L 1892 388 L 1889 383 L 1888 378 L 1884 371 L 1884 368 L 1880 361 L 1879 356 L 1876 351 L 1875 346 L 1872 341 L 1871 336 L 1869 333 L 1869 331 L 1867 328 L 1866 323 L 1862 315 L 1861 314 Z" fill="#FFFFFF" />
    <path d="M 1702 314 L 1701 315 L 1701 332 L 1700 333 L 1700 339 L 1701 340 L 1706 340 L 1707 339 L 1728 339 L 1730 341 L 1730 350 L 1731 351 L 1731 400 L 1730 401 L 1730 426 L 1753 426 L 1754 425 L 1760 425 L 1761 424 L 1761 341 L 1763 339 L 1789 339 L 1790 340 L 1793 340 L 1794 339 L 1794 329 L 1795 328 L 1795 315 L 1794 314 L 1789 314 L 1788 315 L 1715 315 L 1714 314 Z" fill="#FFFFFF" />
    <path d="M 1687 314 L 1681 314 L 1680 315 L 1662 315 L 1661 316 L 1658 316 L 1657 317 L 1657 359 L 1658 360 L 1658 385 L 1657 386 L 1657 426 L 1680 426 L 1681 425 L 1687 425 L 1688 424 L 1688 406 L 1687 405 L 1687 379 L 1686 378 L 1686 362 L 1687 361 L 1687 335 L 1688 334 L 1688 315 Z" fill="#FFFFFF" />
    <path d="M 1515 314 L 1509 314 L 1508 315 L 1490 315 L 1489 316 L 1486 316 L 1485 317 L 1485 324 L 1486 325 L 1486 426 L 1508 426 L 1509 425 L 1515 425 L 1516 424 L 1516 405 L 1515 404 L 1515 336 L 1516 335 L 1516 315 Z" fill="#FFFFFF" />
    <path d="M 1549 326 L 1543 332 L 1543 333 L 1538 339 L 1534 347 L 1534 350 L 1532 353 L 1532 356 L 1531 357 L 1531 360 L 1530 361 L 1530 385 L 1531 386 L 1531 389 L 1532 390 L 1532 392 L 1534 395 L 1534 397 L 1536 401 L 1538 403 L 1539 406 L 1543 410 L 1543 411 L 1545 412 L 1548 416 L 1549 416 L 1555 421 L 1563 425 L 1565 425 L 1566 426 L 1568 426 L 1572 428 L 1575 428 L 1576 429 L 1601 429 L 1602 428 L 1607 428 L 1608 427 L 1611 427 L 1612 426 L 1615 426 L 1616 425 L 1624 424 L 1627 422 L 1635 420 L 1638 417 L 1638 366 L 1637 365 L 1618 365 L 1617 366 L 1610 366 L 1609 367 L 1609 395 L 1610 396 L 1610 403 L 1608 405 L 1590 405 L 1584 402 L 1582 402 L 1578 400 L 1575 397 L 1574 397 L 1568 391 L 1568 390 L 1564 385 L 1563 381 L 1560 375 L 1560 372 L 1559 371 L 1559 355 L 1560 354 L 1560 351 L 1562 348 L 1563 343 L 1568 338 L 1570 337 L 1594 337 L 1595 338 L 1598 338 L 1602 340 L 1605 340 L 1606 341 L 1613 342 L 1618 345 L 1620 345 L 1621 346 L 1625 347 L 1628 344 L 1630 339 L 1633 335 L 1633 333 L 1637 325 L 1637 322 L 1636 321 L 1633 321 L 1630 319 L 1628 319 L 1625 317 L 1621 317 L 1620 316 L 1618 316 L 1614 314 L 1611 314 L 1610 313 L 1605 313 L 1604 312 L 1577 312 L 1576 313 L 1570 314 L 1565 317 L 1562 317 L 1560 319 L 1554 322 L 1550 326 Z" fill="#FFFFFF" />
    <path d="M 212 311 L 210 313 L 210 318 L 212 320 L 215 320 L 217 318 L 217 313 L 215 311 Z" fill="#FFFFFF" />
    <path d="M 190 311 L 188 313 L 187 316 L 189 320 L 193 320 L 195 318 L 195 313 L 193 311 Z" fill="#FFFFFF" />
    <path d="M 234 306 L 233 307 L 233 313 L 235 315 L 237 315 L 239 313 L 240 310 L 237 306 Z" fill="#FFFFFF" />
    <path d="M 201 306 L 198 309 L 198 312 L 200 315 L 204 315 L 206 313 L 206 308 L 204 306 Z" fill="#FFFFFF" />
    <path d="M 168 306 L 166 308 L 166 313 L 168 315 L 170 315 L 172 313 L 173 309 L 171 306 Z" fill="#FFFFFF" />
    <path d="M 224 302 L 221 304 L 221 310 L 225 312 L 228 310 L 228 305 L 225 302 Z" fill="#FFFFFF" />
    <path d="M 179 302 L 177 304 L 176 308 L 178 311 L 181 312 L 184 309 L 184 305 L 182 302 Z" fill="#FFFFFF" />
    <path d="M 200 294 L 198 297 L 198 300 L 201 303 L 204 303 L 206 301 L 206 296 L 204 294 Z" fill="#FFFFFF" />
    <path d="M 336 292 L 334 294 L 334 314 L 335 315 L 341 315 L 342 314 L 342 294 L 340 292 Z" fill="#FFFFFF" />
    <path d="M 320 292 L 319 293 L 319 314 L 320 315 L 325 315 L 326 314 L 326 294 L 324 292 Z" fill="#FFFFFF" />
    <path d="M 305 292 L 303 294 L 303 314 L 304 315 L 309 315 L 311 313 L 311 298 L 310 297 L 310 293 L 309 292 Z" fill="#FFFFFF" />
    <path d="M 288 292 L 287 293 L 287 314 L 288 315 L 293 315 L 294 314 L 294 293 L 293 292 Z" fill="#FFFFFF" />
    <path d="M 273 292 L 272 293 L 272 314 L 273 315 L 278 315 L 279 314 L 279 294 L 277 292 Z" fill="#FFFFFF" />
    <path d="M 130 292 L 128 294 L 128 314 L 129 315 L 135 315 L 136 314 L 136 295 L 134 292 Z" fill="#FFFFFF" />
    <path d="M 114 292 L 113 293 L 113 314 L 114 315 L 119 315 L 120 314 L 120 293 L 119 292 Z" fill="#FFFFFF" />
    <path d="M 98 292 L 97 293 L 97 314 L 98 315 L 103 315 L 104 314 L 104 293 L 103 292 Z" fill="#FFFFFF" />
    <path d="M 83 292 L 81 294 L 81 314 L 82 315 L 88 315 L 89 314 L 89 295 L 87 292 Z" fill="#FFFFFF" />
    <path d="M 67 292 L 66 293 L 66 314 L 67 315 L 72 315 L 73 314 L 73 294 L 71 292 Z" fill="#FFFFFF" />
    <path d="M 223 290 L 221 292 L 221 298 L 222 299 L 226 299 L 228 297 L 228 292 L 226 290 Z" fill="#FFFFFF" />
    <path d="M 179 290 L 177 292 L 176 296 L 178 299 L 182 299 L 184 297 L 184 293 L 182 290 Z" fill="#FFFFFF" />
    <path d="M 211 286 L 210 287 L 210 293 L 213 297 L 213 298 L 210 300 L 210 306 L 212 308 L 215 308 L 217 306 L 217 300 L 213 297 L 217 293 L 217 288 L 215 286 Z" fill="#FFFFFF" />
    <path d="M 189 286 L 188 287 L 187 291 L 188 292 L 188 294 L 191 297 L 188 300 L 187 304 L 190 308 L 192 308 L 195 305 L 195 301 L 191 297 L 195 293 L 195 288 L 193 286 Z" fill="#FFFFFF" />
    <path d="M 148 286 L 147 287 L 147 292 L 146 293 L 146 295 L 147 296 L 147 314 L 146 315 L 146 317 L 147 318 L 147 325 L 148 326 L 148 330 L 150 334 L 150 338 L 151 339 L 151 341 L 153 343 L 153 345 L 155 349 L 157 351 L 159 355 L 163 359 L 163 360 L 196 393 L 196 394 L 198 396 L 198 398 L 200 402 L 200 474 L 202 476 L 205 476 L 207 474 L 207 405 L 208 404 L 208 397 L 207 396 L 207 383 L 206 382 L 206 378 L 205 377 L 205 372 L 201 365 L 201 363 L 199 359 L 190 347 L 190 346 L 191 345 L 193 345 L 195 342 L 195 338 L 191 334 L 195 330 L 195 326 L 193 323 L 190 323 L 188 325 L 187 328 L 188 329 L 188 331 L 191 334 L 188 337 L 187 339 L 187 342 L 186 343 L 163 320 L 157 309 L 156 301 L 155 300 L 155 294 L 154 293 L 154 289 L 152 286 Z" fill="#FFFFFF" />
    <path d="M 260 285 L 258 285 L 254 288 L 254 290 L 253 291 L 253 298 L 252 299 L 252 303 L 251 304 L 251 308 L 245 319 L 242 322 L 242 323 L 215 350 L 215 351 L 211 355 L 209 359 L 211 363 L 211 365 L 212 366 L 214 366 L 214 365 L 218 360 L 219 357 L 245 331 L 245 330 L 251 323 L 253 324 L 252 326 L 252 329 L 251 330 L 251 334 L 250 335 L 250 337 L 248 339 L 247 343 L 242 350 L 242 351 L 216 377 L 216 385 L 217 386 L 220 385 L 222 383 L 222 382 L 224 380 L 225 380 L 235 370 L 235 369 L 244 361 L 244 360 L 248 356 L 249 353 L 252 350 L 256 342 L 256 340 L 258 337 L 258 333 L 259 332 L 259 329 L 260 328 L 260 323 L 261 322 L 261 286 Z" fill="#FFFFFF" />
    <path d="M 234 283 L 233 284 L 233 290 L 236 293 L 233 296 L 233 302 L 234 303 L 238 303 L 240 300 L 240 298 L 239 296 L 236 294 L 236 293 L 239 290 L 240 287 L 238 283 Z" fill="#FFFFFF" />
    <path d="M 168 283 L 166 285 L 166 290 L 169 293 L 169 294 L 166 296 L 166 301 L 168 303 L 170 303 L 172 301 L 172 296 L 169 293 L 172 290 L 173 286 L 171 283 Z" fill="#FFFFFF" />
    <path d="M 202 281 L 199 283 L 198 287 L 200 290 L 203 291 L 205 289 L 205 283 L 203 281 Z" fill="#FFFFFF" />
    <path d="M 223 277 L 221 279 L 221 285 L 223 287 L 226 287 L 228 284 L 228 280 L 225 277 Z" fill="#FFFFFF" />
    <path d="M 179 277 L 177 279 L 176 283 L 179 287 L 182 287 L 184 284 L 184 281 L 181 277 Z" fill="#FFFFFF" />
    <path d="M 200 269 L 198 272 L 198 275 L 200 278 L 203 279 L 206 276 L 206 271 L 204 269 Z" fill="#FFFFFF" />
    <path d="M 212 261 L 210 263 L 210 269 L 213 272 L 210 276 L 210 281 L 212 283 L 215 283 L 217 281 L 217 275 L 215 274 L 214 272 L 217 269 L 217 263 L 215 261 Z" fill="#FFFFFF" />
    <path d="M 190 261 L 187 265 L 188 269 L 191 272 L 188 275 L 188 281 L 190 283 L 193 283 L 195 281 L 195 276 L 191 272 L 195 268 L 195 264 L 193 261 Z" fill="#FFFFFF" />
    <path d="M 201 256 L 198 260 L 198 263 L 200 266 L 204 266 L 206 263 L 206 259 L 203 256 Z" fill="#FFFFFF" />
    <path d="M 1409 246 L 1408 247 L 1408 250 L 1409 251 L 1409 289 L 1410 290 L 1421 290 L 1422 289 L 1421 277 L 1423 275 L 1425 275 L 1428 278 L 1430 283 L 1433 286 L 1434 289 L 1436 291 L 1438 291 L 1446 287 L 1447 285 L 1445 283 L 1444 280 L 1440 276 L 1439 274 L 1439 272 L 1443 268 L 1445 264 L 1445 262 L 1446 261 L 1446 256 L 1445 255 L 1444 251 L 1441 248 L 1437 247 L 1436 246 Z" fill="#FFFFFF" />
    <path d="M 1904 246 L 1903 247 L 1903 289 L 1904 290 L 1914 290 L 1915 289 L 1915 266 L 1917 265 L 1923 272 L 1927 279 L 1930 282 L 1930 283 L 1933 286 L 1934 289 L 1936 291 L 1938 290 L 1946 290 L 1947 289 L 1947 263 L 1948 262 L 1948 246 L 1947 245 L 1946 246 L 1936 246 L 1935 247 L 1935 258 L 1936 259 L 1936 268 L 1935 269 L 1934 269 L 1928 262 L 1928 261 L 1920 250 L 1919 247 L 1917 245 L 1913 245 L 1912 246 Z" fill="#FFFFFF" />
    <path d="M 1845 245 L 1843 245 L 1842 246 L 1834 246 L 1833 247 L 1833 289 L 1834 290 L 1845 290 L 1846 289 L 1846 285 L 1845 284 L 1845 251 L 1846 250 L 1846 246 Z" fill="#FFFFFF" />
    <path d="M 1757 245 L 1755 248 L 1754 253 L 1750 260 L 1750 262 L 1748 265 L 1748 267 L 1745 272 L 1745 274 L 1741 281 L 1741 283 L 1738 289 L 1739 290 L 1750 290 L 1752 286 L 1752 283 L 1755 280 L 1768 280 L 1771 283 L 1771 286 L 1773 290 L 1785 290 L 1786 289 L 1783 284 L 1782 279 L 1780 277 L 1779 272 L 1776 267 L 1776 265 L 1774 262 L 1773 257 L 1770 252 L 1769 247 L 1767 245 Z" fill="#FFFFFF" />
    <path d="M 1678 247 L 1678 257 L 1677 258 L 1677 276 L 1676 277 L 1676 289 L 1677 290 L 1687 290 L 1688 289 L 1688 281 L 1687 280 L 1687 266 L 1688 265 L 1689 265 L 1691 267 L 1692 271 L 1697 280 L 1697 282 L 1700 288 L 1702 290 L 1707 290 L 1708 289 L 1708 287 L 1714 275 L 1716 273 L 1717 269 L 1719 266 L 1720 266 L 1722 269 L 1722 289 L 1723 290 L 1733 290 L 1734 289 L 1734 278 L 1733 277 L 1733 261 L 1732 260 L 1732 247 L 1731 246 L 1718 246 L 1706 270 L 1704 269 L 1703 266 L 1701 264 L 1699 260 L 1699 258 L 1695 251 L 1695 249 L 1692 245 L 1687 245 L 1686 246 L 1679 246 Z" fill="#FFFFFF" />
    <path d="M 1620 245 L 1618 246 L 1593 246 L 1592 247 L 1592 289 L 1593 290 L 1603 290 L 1604 289 L 1604 275 L 1606 273 L 1617 273 L 1618 272 L 1618 264 L 1617 263 L 1606 263 L 1604 261 L 1604 257 L 1606 255 L 1619 255 L 1620 254 L 1620 251 L 1621 250 L 1621 246 Z" fill="#FFFFFF" />
    <path d="M 1565 245 L 1564 246 L 1560 247 L 1554 252 L 1552 256 L 1552 262 L 1556 267 L 1563 271 L 1565 271 L 1571 274 L 1575 278 L 1575 279 L 1573 281 L 1570 281 L 1569 280 L 1566 280 L 1565 279 L 1562 279 L 1561 278 L 1555 277 L 1553 281 L 1553 288 L 1554 289 L 1556 289 L 1557 290 L 1561 290 L 1562 291 L 1573 291 L 1579 288 L 1585 282 L 1585 280 L 1586 279 L 1587 275 L 1586 274 L 1586 271 L 1583 267 L 1582 267 L 1579 264 L 1577 264 L 1570 260 L 1568 260 L 1565 257 L 1565 256 L 1567 254 L 1569 254 L 1570 255 L 1573 255 L 1574 256 L 1577 256 L 1578 257 L 1583 257 L 1583 254 L 1584 253 L 1584 247 L 1583 246 L 1579 246 L 1578 245 Z" fill="#FFFFFF" />
    <path d="M 1502 246 L 1501 247 L 1501 287 L 1500 289 L 1501 290 L 1513 290 L 1514 289 L 1513 287 L 1513 267 L 1512 266 L 1512 264 L 1514 263 L 1517 267 L 1517 268 L 1521 272 L 1522 275 L 1528 282 L 1531 288 L 1534 291 L 1536 290 L 1544 290 L 1545 289 L 1545 266 L 1546 265 L 1546 246 L 1534 246 L 1533 247 L 1533 253 L 1534 254 L 1534 268 L 1533 269 L 1532 269 L 1528 265 L 1528 264 L 1526 262 L 1524 258 L 1521 255 L 1521 254 L 1519 252 L 1518 249 L 1515 245 L 1511 245 L 1510 246 Z" fill="#FFFFFF" />
    <path d="M 1469 245 L 1467 247 L 1464 253 L 1463 258 L 1461 260 L 1461 262 L 1459 265 L 1459 267 L 1455 274 L 1455 276 L 1451 283 L 1451 285 L 1449 289 L 1450 290 L 1461 290 L 1462 289 L 1463 283 L 1466 280 L 1479 280 L 1481 282 L 1482 286 L 1483 287 L 1483 289 L 1484 290 L 1496 290 L 1497 289 L 1493 282 L 1493 279 L 1489 272 L 1488 267 L 1484 260 L 1484 257 L 1480 250 L 1480 247 L 1478 245 Z" fill="#FFFFFF" />
    <path d="M 1367 245 L 1366 246 L 1366 255 L 1367 256 L 1369 256 L 1370 255 L 1376 255 L 1378 257 L 1378 289 L 1379 290 L 1390 290 L 1391 289 L 1391 272 L 1390 271 L 1390 268 L 1391 267 L 1391 257 L 1393 255 L 1400 255 L 1401 256 L 1403 256 L 1404 255 L 1404 246 L 1403 245 L 1402 246 L 1372 246 L 1371 245 Z" fill="#FFFFFF" />
    <path d="M 1795 248 L 1790 253 L 1786 261 L 1786 265 L 1785 266 L 1785 272 L 1786 273 L 1786 276 L 1789 282 L 1796 289 L 1798 289 L 1801 291 L 1805 291 L 1806 292 L 1809 292 L 1810 291 L 1815 291 L 1816 290 L 1819 290 L 1820 289 L 1823 289 L 1826 287 L 1826 278 L 1825 277 L 1823 277 L 1822 278 L 1820 278 L 1814 281 L 1810 281 L 1809 280 L 1807 280 L 1805 278 L 1804 278 L 1800 274 L 1799 272 L 1799 270 L 1798 269 L 1798 261 L 1800 257 L 1802 255 L 1805 255 L 1806 254 L 1808 255 L 1813 255 L 1814 256 L 1816 256 L 1820 258 L 1823 258 L 1826 254 L 1827 249 L 1824 247 L 1822 247 L 1818 245 L 1815 245 L 1814 244 L 1805 244 L 1804 245 L 1802 245 L 1801 246 L 1799 246 Z" fill="#FFFFFF" />
    <path d="M 1652 244 L 1644 244 L 1643 245 L 1640 245 L 1639 246 L 1635 247 L 1627 255 L 1626 259 L 1625 260 L 1625 262 L 1624 263 L 1624 274 L 1625 275 L 1625 277 L 1628 283 L 1635 289 L 1637 289 L 1641 291 L 1644 291 L 1645 292 L 1653 291 L 1656 289 L 1660 288 L 1668 279 L 1669 273 L 1670 272 L 1670 262 L 1669 261 L 1669 257 L 1668 255 L 1663 249 L 1662 249 L 1658 246 L 1656 246 Z" fill="#FFFFFF" />
    <path d="M 1879 230 L 1878 230 L 1867 238 L 1867 240 L 1869 244 L 1866 246 L 1862 247 L 1858 251 L 1857 251 L 1855 255 L 1853 257 L 1852 261 L 1851 262 L 1851 275 L 1855 283 L 1862 289 L 1864 289 L 1868 291 L 1871 291 L 1872 292 L 1880 291 L 1881 290 L 1883 290 L 1887 288 L 1893 282 L 1896 276 L 1896 274 L 1897 273 L 1897 260 L 1894 254 L 1887 247 L 1883 246 L 1882 245 L 1880 245 L 1879 244 L 1877 244 L 1876 243 L 1877 241 L 1882 240 L 1884 238 L 1883 235 Z" fill="#FFFFFF" />
    <path d="M 224 215 L 220 220 L 220 232 L 218 234 L 217 234 L 212 239 L 211 241 L 211 250 L 212 252 L 217 257 L 219 258 L 227 258 L 229 257 L 232 254 L 232 249 L 230 247 L 228 247 L 225 250 L 222 251 L 219 248 L 219 244 L 223 240 L 227 240 L 228 239 L 236 239 L 239 242 L 239 244 L 242 248 L 243 252 L 249 258 L 257 257 L 257 255 L 249 246 L 245 238 L 245 234 L 243 232 L 233 232 L 231 231 L 227 227 L 227 224 L 230 221 L 233 221 L 235 223 L 240 223 L 241 222 L 241 218 L 240 216 L 235 213 L 228 213 Z" fill="#FFFFFF" />
    <path d="M 182 216 L 181 216 L 177 213 L 169 213 L 164 217 L 163 221 L 165 223 L 170 223 L 172 221 L 175 221 L 177 223 L 177 228 L 172 232 L 162 232 L 160 234 L 159 240 L 157 244 L 155 246 L 154 249 L 148 255 L 149 257 L 156 258 L 161 253 L 162 250 L 165 246 L 166 242 L 169 239 L 178 239 L 179 240 L 182 240 L 186 245 L 186 247 L 183 251 L 181 251 L 177 247 L 175 247 L 172 250 L 172 253 L 177 258 L 186 258 L 188 257 L 192 253 L 193 249 L 194 248 L 194 243 L 193 242 L 192 238 L 184 231 L 185 229 L 185 221 Z" fill="#FFFFFF" />
    <path d="M 296 207 L 295 208 L 291 209 L 288 212 L 286 216 L 286 224 L 287 226 L 292 231 L 294 231 L 295 232 L 301 232 L 302 231 L 304 231 L 309 226 L 310 222 L 311 221 L 311 218 L 310 217 L 309 213 L 305 209 L 301 207 Z" fill="#FFFFFF" />
    <path d="M 104 207 L 100 209 L 96 213 L 95 217 L 94 218 L 94 221 L 95 222 L 95 224 L 97 228 L 99 230 L 103 232 L 110 232 L 114 230 L 117 227 L 117 225 L 119 221 L 119 218 L 118 217 L 117 212 L 112 208 L 110 208 L 109 207 Z" fill="#FFFFFF" />
    <path d="M 200 194 L 199 195 L 199 214 L 198 215 L 197 215 L 196 213 L 191 208 L 185 208 L 183 210 L 193 221 L 198 231 L 198 238 L 199 239 L 199 249 L 200 250 L 204 250 L 205 249 L 205 240 L 206 239 L 206 235 L 207 234 L 207 231 L 209 228 L 209 226 L 213 219 L 221 211 L 221 209 L 220 208 L 214 208 L 208 214 L 208 215 L 206 216 L 205 215 L 205 195 L 204 194 Z" fill="#FFFFFF" />
    <path d="M 350 214 L 350 200 L 349 198 L 344 193 L 340 191 L 331 191 L 329 192 L 325 196 L 323 200 L 323 205 L 324 206 L 325 210 L 327 212 L 329 212 L 330 213 L 333 213 L 335 210 L 335 208 L 331 203 L 331 201 L 333 199 L 338 199 L 343 203 L 343 211 L 338 216 L 336 217 L 329 217 L 327 216 L 321 210 L 321 208 L 319 205 L 319 203 L 314 198 L 313 198 L 310 195 L 308 195 L 307 194 L 303 194 L 302 193 L 295 193 L 294 194 L 289 194 L 282 198 L 280 201 L 280 207 L 282 209 L 283 209 L 284 207 L 290 202 L 292 202 L 293 201 L 304 201 L 312 207 L 315 215 L 321 222 L 325 223 L 326 224 L 328 224 L 329 225 L 336 225 L 337 224 L 340 224 L 344 222 L 347 219 L 347 218 Z" fill="#FFFFFF" />
    <path d="M 54 211 L 55 212 L 55 214 L 57 218 L 61 222 L 65 223 L 66 224 L 68 224 L 69 225 L 77 225 L 85 221 L 90 215 L 91 213 L 91 210 L 93 208 L 93 207 L 97 203 L 101 201 L 112 201 L 116 203 L 122 209 L 123 209 L 125 207 L 126 203 L 125 201 L 120 196 L 116 194 L 111 194 L 110 193 L 103 193 L 102 194 L 97 194 L 92 198 L 91 198 L 86 203 L 84 207 L 84 210 L 78 216 L 76 217 L 69 217 L 68 216 L 66 216 L 64 214 L 62 210 L 62 208 L 61 207 L 62 203 L 66 199 L 71 199 L 74 202 L 74 203 L 71 206 L 70 210 L 72 213 L 75 213 L 77 212 L 81 208 L 81 206 L 82 205 L 82 200 L 80 196 L 77 193 L 73 191 L 65 191 L 64 192 L 60 193 L 55 199 L 55 201 L 54 202 Z" fill="#FFFFFF" />
    <path d="M 1251 190 L 1250 191 L 1250 421 L 1251 422 L 1257 422 L 1258 421 L 1258 191 L 1257 190 Z" fill="#FFFFFF" />
    <path d="M 692 190 L 691 191 L 691 236 L 692 237 L 692 250 L 691 251 L 691 301 L 692 302 L 696 302 L 697 301 L 713 301 L 715 299 L 715 297 L 714 296 L 714 260 L 716 258 L 724 258 L 725 259 L 729 259 L 732 262 L 736 270 L 739 273 L 739 275 L 743 280 L 744 283 L 747 286 L 749 290 L 752 293 L 753 296 L 758 302 L 762 302 L 768 299 L 770 299 L 771 298 L 773 298 L 774 297 L 778 296 L 780 294 L 777 291 L 775 287 L 769 280 L 768 277 L 763 271 L 762 268 L 759 265 L 758 262 L 755 258 L 755 255 L 767 242 L 772 231 L 772 225 L 773 224 L 773 216 L 772 215 L 772 210 L 768 203 L 759 195 L 755 194 L 754 193 L 752 193 L 751 192 L 749 192 L 748 191 L 745 191 L 744 190 Z" fill="#FFFFFF" />
    <path d="M 876 190 L 875 191 L 875 300 L 876 301 L 895 301 L 896 300 L 907 300 L 908 301 L 932 301 L 933 302 L 940 302 L 941 301 L 941 284 L 940 283 L 900 283 L 898 281 L 898 272 L 897 271 L 897 218 L 898 217 L 898 190 L 897 189 Z" fill="#FFFFFF" />
    <path d="M 858 189 L 850 189 L 849 190 L 793 190 L 792 191 L 792 226 L 793 227 L 793 278 L 792 279 L 792 300 L 793 301 L 844 301 L 845 302 L 858 302 L 859 301 L 859 287 L 860 286 L 860 284 L 858 282 L 846 282 L 845 283 L 816 283 L 814 281 L 814 254 L 816 252 L 851 252 L 852 251 L 852 235 L 851 234 L 816 234 L 814 232 L 814 210 L 816 208 L 857 208 L 858 207 L 858 199 L 859 198 L 859 190 Z" fill="#FFFFFF" />
    <path d="M 422 191 L 422 201 L 421 202 L 421 221 L 420 222 L 420 241 L 419 242 L 419 260 L 418 261 L 418 290 L 417 291 L 417 301 L 437 301 L 438 300 L 438 218 L 439 217 L 441 218 L 442 222 L 444 224 L 445 229 L 449 236 L 449 238 L 453 245 L 453 247 L 457 254 L 457 256 L 462 265 L 462 267 L 470 283 L 471 288 L 475 295 L 476 300 L 478 302 L 487 302 L 488 301 L 488 299 L 490 297 L 491 292 L 495 286 L 495 284 L 504 266 L 504 264 L 509 255 L 509 253 L 514 244 L 514 242 L 517 238 L 517 235 L 522 226 L 522 224 L 524 220 L 526 219 L 527 220 L 527 231 L 528 232 L 528 267 L 529 268 L 529 294 L 530 295 L 530 301 L 531 302 L 536 302 L 537 301 L 551 301 L 552 300 L 552 293 L 551 292 L 551 281 L 550 280 L 550 269 L 549 268 L 549 257 L 548 256 L 548 222 L 547 221 L 547 197 L 546 196 L 546 190 L 545 189 L 543 190 L 527 190 L 526 191 L 519 191 L 518 192 L 517 196 L 515 199 L 514 204 L 510 211 L 510 213 L 506 220 L 506 222 L 501 231 L 501 233 L 492 251 L 492 253 L 488 260 L 488 262 L 485 266 L 483 265 L 482 261 L 469 235 L 469 233 L 467 229 L 465 227 L 464 222 L 460 215 L 460 213 L 456 206 L 455 201 L 452 196 L 451 190 L 450 189 L 432 189 L 431 190 L 423 190 Z" fill="#FFFFFF" />
    <path d="M 1650 188 L 1649 189 L 1649 222 L 1650 223 L 1668 223 L 1670 224 L 1671 223 L 1671 218 L 1670 217 L 1658 217 L 1656 215 L 1656 210 L 1658 208 L 1668 208 L 1669 207 L 1669 203 L 1668 202 L 1658 202 L 1656 200 L 1656 196 L 1658 194 L 1669 194 L 1670 193 L 1670 189 L 1669 188 Z" fill="#FFFFFF" />
    <path d="M 1612 188 L 1611 189 L 1611 222 L 1614 224 L 1629 224 L 1630 223 L 1633 223 L 1637 221 L 1641 217 L 1642 213 L 1643 212 L 1643 210 L 1644 209 L 1644 201 L 1643 200 L 1642 195 L 1636 190 L 1634 190 L 1633 189 L 1628 189 L 1627 188 Z" fill="#FFFFFF" />
    <path d="M 1571 188 L 1565 200 L 1565 203 L 1561 210 L 1560 215 L 1558 217 L 1558 219 L 1556 222 L 1557 223 L 1563 223 L 1565 221 L 1566 217 L 1569 214 L 1578 214 L 1581 217 L 1582 222 L 1584 224 L 1585 223 L 1590 223 L 1591 222 L 1590 221 L 1590 219 L 1587 214 L 1587 212 L 1585 209 L 1584 204 L 1581 199 L 1581 197 L 1580 196 L 1580 194 L 1578 190 L 1576 188 Z" fill="#FFFFFF" />
    <path d="M 1545 188 L 1544 189 L 1544 203 L 1545 204 L 1545 208 L 1544 209 L 1544 223 L 1552 223 L 1553 222 L 1553 217 L 1552 216 L 1552 195 L 1553 194 L 1553 189 L 1552 188 Z" fill="#FFFFFF" />
    <path d="M 1469 188 L 1468 189 L 1468 222 L 1469 223 L 1475 223 L 1476 222 L 1476 220 L 1475 219 L 1475 202 L 1477 201 L 1486 211 L 1486 212 L 1489 215 L 1489 216 L 1492 219 L 1492 220 L 1495 224 L 1499 224 L 1502 222 L 1502 189 L 1501 188 L 1495 188 L 1494 189 L 1494 191 L 1495 192 L 1495 208 L 1493 209 L 1487 202 L 1487 201 L 1484 198 L 1484 197 L 1480 193 L 1479 190 L 1477 188 Z" fill="#FFFFFF" />
    <path d="M 1442 188 L 1441 189 L 1441 222 L 1442 223 L 1460 223 L 1461 224 L 1462 223 L 1462 218 L 1461 217 L 1451 217 L 1449 215 L 1449 210 L 1451 208 L 1459 208 L 1461 206 L 1461 203 L 1460 202 L 1451 202 L 1449 200 L 1449 196 L 1451 194 L 1461 194 L 1462 193 L 1462 189 L 1461 188 Z" fill="#FFFFFF" />
    <path d="M 1381 188 L 1376 198 L 1376 201 L 1374 203 L 1374 205 L 1372 208 L 1372 210 L 1368 217 L 1367 223 L 1373 223 L 1375 221 L 1376 217 L 1379 214 L 1388 214 L 1390 216 L 1392 220 L 1392 222 L 1394 224 L 1395 223 L 1400 223 L 1401 222 L 1400 221 L 1400 219 L 1396 212 L 1396 209 L 1392 202 L 1392 199 L 1390 196 L 1390 194 L 1388 191 L 1388 189 L 1387 188 Z" fill="#FFFFFF" />
    <path d="M 1102 188 L 1101 189 L 1097 189 L 1096 190 L 1094 190 L 1090 193 L 1085 195 L 1073 206 L 1068 216 L 1068 226 L 1069 227 L 1069 229 L 1071 233 L 1077 240 L 1078 240 L 1083 244 L 1086 245 L 1088 247 L 1092 249 L 1094 249 L 1096 251 L 1098 251 L 1100 253 L 1102 253 L 1108 256 L 1110 258 L 1112 258 L 1115 261 L 1116 261 L 1123 269 L 1123 271 L 1124 272 L 1124 276 L 1123 277 L 1123 279 L 1119 284 L 1117 285 L 1112 285 L 1111 284 L 1106 284 L 1105 283 L 1101 283 L 1100 282 L 1095 282 L 1094 281 L 1091 281 L 1090 280 L 1088 280 L 1087 279 L 1085 279 L 1081 277 L 1077 277 L 1073 275 L 1072 276 L 1072 279 L 1071 280 L 1071 285 L 1070 286 L 1070 293 L 1069 294 L 1069 296 L 1071 298 L 1074 298 L 1075 299 L 1077 299 L 1081 301 L 1084 301 L 1085 302 L 1094 302 L 1095 303 L 1114 303 L 1126 297 L 1137 287 L 1137 286 L 1140 283 L 1145 272 L 1145 262 L 1144 261 L 1143 256 L 1141 254 L 1141 252 L 1134 245 L 1133 245 L 1130 242 L 1125 240 L 1123 238 L 1121 238 L 1101 228 L 1093 221 L 1093 219 L 1092 218 L 1091 214 L 1092 213 L 1093 209 L 1098 205 L 1104 205 L 1105 206 L 1108 206 L 1109 207 L 1112 207 L 1116 209 L 1123 210 L 1124 211 L 1129 212 L 1132 214 L 1134 214 L 1136 212 L 1136 210 L 1137 209 L 1137 204 L 1138 203 L 1138 200 L 1139 199 L 1139 194 L 1138 193 L 1136 193 L 1135 192 L 1133 192 L 1129 190 L 1124 190 L 1123 189 L 1111 189 L 1110 188 Z" fill="#FFFFFF" />
    <path d="M 1515 190 L 1510 195 L 1508 199 L 1508 204 L 1507 205 L 1508 214 L 1511 218 L 1511 219 L 1514 222 L 1518 223 L 1519 224 L 1531 224 L 1532 223 L 1535 223 L 1538 221 L 1538 215 L 1535 215 L 1531 217 L 1523 217 L 1521 216 L 1517 212 L 1515 208 L 1515 201 L 1516 200 L 1516 198 L 1521 194 L 1527 194 L 1528 195 L 1530 195 L 1534 197 L 1537 197 L 1537 196 L 1539 194 L 1539 191 L 1536 189 L 1533 189 L 1529 187 L 1522 187 L 1521 188 L 1519 188 Z" fill="#FFFFFF" />
    <path d="M 1409 190 L 1403 196 L 1402 202 L 1401 203 L 1401 210 L 1402 211 L 1402 214 L 1403 216 L 1409 222 L 1413 223 L 1414 224 L 1426 224 L 1427 223 L 1431 223 L 1434 221 L 1434 218 L 1435 217 L 1435 205 L 1434 204 L 1429 204 L 1427 206 L 1427 216 L 1425 218 L 1419 218 L 1415 216 L 1410 211 L 1409 209 L 1409 200 L 1410 198 L 1414 194 L 1421 194 L 1422 195 L 1424 195 L 1425 196 L 1427 196 L 1431 198 L 1434 193 L 1434 191 L 1431 189 L 1425 188 L 1424 187 L 1416 187 L 1415 188 L 1413 188 Z" fill="#FFFFFF" />
    <path d="M 995 187 L 994 188 L 985 189 L 979 192 L 977 192 L 975 194 L 973 194 L 970 197 L 967 198 L 956 209 L 956 210 L 950 218 L 949 223 L 947 226 L 947 228 L 945 232 L 944 250 L 945 251 L 945 260 L 946 261 L 947 267 L 950 272 L 950 274 L 953 278 L 954 281 L 961 289 L 962 289 L 966 293 L 967 293 L 972 297 L 978 300 L 980 300 L 983 302 L 987 302 L 988 303 L 992 303 L 993 304 L 1006 304 L 1007 303 L 1011 303 L 1012 302 L 1017 302 L 1020 300 L 1022 300 L 1024 298 L 1028 297 L 1030 295 L 1034 293 L 1044 283 L 1045 280 L 1048 277 L 1049 273 L 1051 271 L 1052 267 L 1053 266 L 1053 263 L 1054 262 L 1054 259 L 1055 258 L 1055 255 L 1056 254 L 1057 238 L 1056 237 L 1056 231 L 1055 230 L 1055 227 L 1053 223 L 1053 220 L 1051 216 L 1049 214 L 1049 212 L 1046 209 L 1046 208 L 1036 198 L 1035 198 L 1030 194 L 1028 194 L 1026 192 L 1024 192 L 1018 189 L 1014 189 L 1013 188 L 1010 188 L 1009 187 Z" fill="#FFFFFF" />
    <path d="M 615 187 L 614 188 L 610 188 L 609 189 L 605 189 L 604 190 L 602 190 L 592 195 L 590 197 L 586 199 L 577 208 L 577 209 L 574 212 L 567 226 L 567 230 L 566 231 L 566 234 L 565 235 L 565 240 L 564 241 L 564 251 L 565 252 L 565 258 L 566 259 L 567 266 L 573 279 L 576 282 L 576 283 L 586 293 L 587 293 L 592 297 L 594 297 L 604 302 L 608 302 L 609 303 L 613 303 L 614 304 L 626 304 L 627 303 L 631 303 L 632 302 L 637 302 L 648 297 L 650 295 L 654 293 L 664 283 L 664 282 L 667 279 L 668 276 L 670 274 L 671 270 L 672 269 L 672 267 L 675 261 L 675 257 L 676 256 L 676 246 L 677 245 L 677 239 L 676 238 L 676 229 L 675 228 L 674 222 L 671 217 L 671 215 L 661 202 L 660 202 L 652 195 L 639 189 L 635 189 L 634 188 L 630 188 L 629 187 Z" fill="#FFFFFF" />
    <path d="M 234 186 L 233 188 L 233 194 L 235 196 L 239 196 L 240 195 L 241 190 L 244 187 L 247 187 L 251 190 L 251 233 L 252 234 L 253 239 L 255 241 L 255 243 L 262 251 L 268 254 L 270 256 L 276 257 L 277 258 L 322 258 L 324 260 L 324 262 L 322 264 L 251 264 L 250 265 L 244 266 L 238 269 L 233 274 L 233 276 L 243 276 L 245 274 L 249 273 L 250 272 L 322 272 L 323 271 L 327 271 L 331 267 L 332 265 L 332 257 L 330 255 L 330 254 L 326 251 L 281 251 L 280 250 L 276 250 L 270 247 L 262 239 L 259 233 L 259 230 L 258 229 L 258 187 L 257 185 L 253 181 L 251 180 L 241 180 L 239 181 Z" fill="#FFFFFF" />
    <path d="M 170 185 L 166 181 L 164 180 L 161 180 L 160 179 L 154 180 L 152 181 L 148 185 L 146 189 L 146 231 L 145 232 L 145 235 L 142 239 L 142 240 L 135 247 L 133 247 L 131 249 L 129 249 L 128 250 L 124 250 L 123 251 L 79 251 L 77 252 L 73 257 L 73 265 L 74 267 L 78 271 L 83 271 L 84 272 L 110 272 L 111 271 L 118 271 L 119 272 L 138 272 L 139 271 L 143 271 L 144 272 L 154 272 L 162 276 L 171 276 L 172 274 L 168 270 L 161 266 L 155 265 L 154 264 L 83 264 L 81 262 L 81 260 L 83 258 L 128 258 L 129 257 L 132 257 L 143 251 L 149 244 L 152 238 L 152 236 L 153 235 L 153 228 L 154 227 L 154 190 L 157 187 L 161 187 L 164 191 L 164 194 L 166 196 L 170 196 L 172 193 L 172 190 L 171 189 Z" fill="#FFFFFF" />
    <path d="M 222 176 L 220 180 L 219 185 L 218 186 L 218 198 L 219 199 L 219 201 L 221 205 L 226 205 L 227 204 L 227 198 L 226 197 L 226 187 L 227 186 L 227 183 L 234 175 L 240 172 L 247 171 L 248 172 L 251 172 L 252 173 L 256 174 L 264 182 L 264 184 L 266 187 L 266 229 L 267 230 L 268 235 L 271 239 L 279 243 L 324 243 L 325 244 L 328 244 L 332 247 L 333 247 L 336 250 L 336 251 L 339 255 L 339 258 L 340 259 L 339 268 L 337 270 L 335 274 L 332 277 L 330 277 L 327 279 L 323 279 L 322 280 L 273 280 L 271 282 L 271 285 L 273 287 L 275 288 L 320 288 L 321 287 L 327 287 L 333 284 L 335 284 L 339 280 L 341 279 L 341 278 L 344 275 L 346 271 L 346 268 L 347 267 L 347 256 L 346 255 L 346 251 L 345 249 L 336 239 L 332 238 L 331 237 L 329 237 L 328 236 L 324 236 L 323 235 L 319 235 L 318 236 L 286 236 L 285 235 L 280 235 L 275 231 L 275 229 L 274 228 L 274 188 L 273 187 L 273 184 L 271 181 L 270 177 L 265 171 L 264 171 L 261 168 L 255 165 L 253 165 L 252 164 L 240 164 L 239 165 L 237 165 L 234 167 L 230 168 Z" fill="#FFFFFF" />
    <path d="M 182 175 L 175 168 L 169 165 L 167 165 L 166 164 L 153 164 L 152 165 L 150 165 L 147 167 L 143 168 L 134 178 L 133 182 L 132 183 L 132 188 L 131 189 L 131 228 L 129 232 L 127 234 L 125 235 L 122 235 L 121 236 L 119 236 L 118 235 L 116 235 L 115 236 L 77 236 L 76 237 L 74 237 L 73 238 L 69 239 L 62 246 L 62 247 L 60 249 L 59 253 L 58 254 L 58 258 L 57 259 L 58 269 L 62 277 L 70 284 L 72 284 L 78 287 L 86 287 L 87 288 L 133 288 L 136 285 L 136 282 L 134 280 L 124 280 L 123 279 L 102 279 L 101 280 L 82 280 L 81 279 L 78 279 L 72 276 L 67 270 L 65 266 L 65 257 L 69 250 L 72 247 L 73 247 L 77 244 L 80 244 L 81 243 L 125 243 L 126 242 L 128 242 L 132 240 L 137 234 L 138 232 L 138 229 L 139 228 L 139 186 L 143 179 L 146 176 L 147 176 L 151 173 L 153 173 L 157 171 L 161 171 L 162 172 L 164 172 L 165 173 L 169 174 L 177 182 L 178 186 L 179 187 L 180 193 L 179 194 L 179 197 L 178 198 L 177 203 L 179 205 L 183 205 L 185 203 L 186 199 L 187 198 L 187 186 Z" fill="#FFFFFF" />
    <path d="M 287 166 L 284 178 L 282 180 L 282 186 L 283 187 L 288 187 L 289 186 L 294 186 L 295 185 L 303 185 L 304 186 L 308 186 L 309 187 L 314 188 L 320 192 L 321 192 L 325 188 L 325 186 L 324 185 L 324 180 L 325 179 L 326 174 L 328 171 L 328 170 L 326 168 L 322 169 L 318 173 L 318 176 L 315 180 L 312 180 L 310 178 L 311 170 L 313 166 L 313 164 L 312 163 L 310 163 L 305 166 L 304 170 L 303 171 L 303 175 L 299 178 L 294 178 L 293 177 L 293 172 L 294 171 L 294 169 L 295 168 L 296 164 L 295 163 L 291 163 Z" fill="#FFFFFF" />
    <path d="M 78 169 L 78 173 L 79 174 L 79 177 L 80 178 L 80 181 L 81 182 L 80 188 L 83 191 L 86 191 L 93 187 L 96 187 L 97 186 L 100 186 L 101 185 L 110 185 L 111 186 L 116 186 L 117 187 L 121 187 L 123 185 L 123 180 L 121 178 L 121 176 L 120 175 L 118 167 L 117 165 L 114 163 L 110 163 L 109 164 L 110 166 L 110 169 L 111 170 L 111 173 L 113 176 L 111 178 L 105 178 L 102 174 L 102 172 L 101 171 L 100 167 L 95 163 L 93 163 L 92 164 L 93 172 L 95 176 L 95 177 L 92 180 L 89 180 L 87 178 L 87 174 L 83 169 L 81 169 L 80 168 Z" fill="#FFFFFF" />
</svg>